<?xml version="1.0" encoding="UTF-8"?>
<svg version="1.1" xmlns="http://www.w3.org/2000/svg" width="128" height="128">
<path d="M0 0 C2.86234436 1.78637877 3.92024591 2.97167524 4.99609375 6.19921875 C5.55039063 5.77769531 6.1046875 5.35617188 6.67578125 4.921875 C7.76246094 4.10009766 7.76246094 4.10009766 8.87109375 3.26171875 C9.59039062 2.71644531 10.3096875 2.17117187 11.05078125 1.609375 C15.65790746 -1.73032894 20.47646181 -1.35508658 25.99609375 -0.80078125 C30.91615442 1.52506561 33.3084081 4.52065483 35.99609375 9.19921875 C37.16484185 12.70546305 37.12123642 15.84700535 37.09375 19.4921875 C37.09233505 20.19821609 37.0909201 20.90424469 37.08946228 21.63166809 C37.08387139 23.88339501 37.07132063 26.13502196 37.05859375 28.38671875 C37.05357757 29.9147121 37.04901487 31.44270702 37.04492188 32.97070312 C37.03390495 36.7135801 37.01664662 40.45638248 36.99609375 44.19921875 C35.34609375 44.19921875 33.69609375 44.19921875 31.99609375 44.19921875 C31.98151123 43.22573486 31.96692871 42.25225098 31.9519043 41.24926758 C31.89376079 37.62406399 31.81652998 33.99947115 31.73364258 30.37475586 C31.70046843 28.80845074 31.67241317 27.24202824 31.6496582 25.67553711 C31.61597259 23.41860112 31.56365326 21.16273349 31.5078125 18.90625 C31.50142258 18.21022171 31.49503265 17.51419342 31.4884491 16.79707336 C31.35812395 12.44959743 30.61414924 9.68523196 27.99609375 6.19921875 C24.56844123 3.62847936 21.15638079 3.76884423 16.99609375 4.19921875 C12.96510088 6.10063048 11.36244182 7.18073396 9.84033203 11.41235352 C9.00417945 15.16295001 8.76669727 18.39211474 8.80078125 22.2265625 C8.81044922 24.15532227 8.81044922 24.15532227 8.8203125 26.12304688 C8.83701774 27.46094029 8.85394756 28.79883092 8.87109375 30.13671875 C8.88114053 31.50194658 8.89026339 32.86718155 8.8984375 34.23242188 C8.9219177 37.55487074 8.95476016 40.87695196 8.99609375 44.19921875 C7.34609375 44.19921875 5.69609375 44.19921875 3.99609375 44.19921875 C3.98151123 43.25602783 3.96692871 42.31283691 3.9519043 41.34106445 C3.89069769 37.82763214 3.81651867 34.31496429 3.73364258 30.80200195 C3.70047459 29.28420254 3.67241743 27.76628219 3.6496582 26.24829102 C3.61596097 24.06083856 3.56364171 21.87448611 3.5078125 19.6875 C3.48162842 18.37305908 3.45544434 17.05861816 3.4284668 15.7043457 C2.8723994 11.19646339 1.36195678 8.6138626 -1.75390625 5.38671875 C-5.00562189 3.67053549 -7.37850787 3.81759787 -11.00390625 4.19921875 C-15.23131264 6.02468969 -17.00641928 8.10084795 -19.00390625 12.19921875 C-19.5058463 15.77484275 -19.5058463 15.77484275 -19.515625 19.6875 C-19.5425518 20.74229805 -19.5425518 20.74229805 -19.57002258 21.81840515 C-19.62391105 24.04944992 -19.65795037 26.28028345 -19.69140625 28.51171875 C-19.72459849 30.03062822 -19.75908992 31.54950989 -19.79492188 33.06835938 C-19.8796232 36.77844291 -19.94653699 40.48860045 -20.00390625 44.19921875 C-21.32390625 44.19921875 -22.64390625 44.19921875 -24.00390625 44.19921875 C-24.10331501 39.4853317 -24.17562659 34.77206433 -24.22363281 30.05737305 C-24.24365972 28.45602784 -24.27088979 26.85475495 -24.30566406 25.25366211 C-24.35458044 22.94236338 -24.37696336 20.63203721 -24.39453125 18.3203125 C-24.41517639 17.612733 -24.43582153 16.9051535 -24.45709229 16.1761322 C-24.45955271 10.63693586 -23.06775869 7.64553278 -20.00390625 3.19921875 C-14.264579 -1.36881723 -7.02121881 -2.80575021 0 0 Z " fill="#5F6162" transform="translate(82.00390625,40.80078125)"/>
<path d="M0 0 C1.32 0 2.64 0 4 0 C4.0093457 0.96824707 4.01869141 1.93649414 4.02832031 2.93408203 C4.06836783 6.54635647 4.13416554 10.15779235 4.20751953 13.76953125 C4.23564413 15.3289915 4.25690089 16.88859204 4.27099609 18.44824219 C4.29254542 20.69799173 4.33925057 22.94606974 4.390625 25.1953125 C4.39185364 25.8861795 4.39308228 26.57704651 4.39434814 27.28884888 C4.5430925 32.26920189 5.88285355 35.15425521 9 39 C11.32595946 40.16297973 12.78723231 40.16600691 15.375 40.1875 C16.14585938 40.20167969 16.91671875 40.21585938 17.7109375 40.23046875 C20.3971594 39.96001296 21.79770206 39.58148556 24 38 C26.808927 33.37752358 27.40433003 29.78349829 27.51171875 24.4140625 C27.52966995 23.71227875 27.54762115 23.010495 27.56611633 22.28744507 C27.61989047 20.06668947 27.65400693 17.8461446 27.6875 15.625 C27.72070237 14.11064796 27.75519471 12.59632362 27.79101562 11.08203125 C27.87559581 7.38822326 27.9425635 3.69434121 28 0 C29.32 0 30.64 0 32 0 C32.09940876 4.71388705 32.17172034 9.42715442 32.21972656 14.1418457 C32.23975347 15.74319091 32.26698354 17.3444638 32.30175781 18.94555664 C32.35067419 21.25685537 32.37305711 23.56718154 32.390625 25.87890625 C32.41127014 26.58648575 32.43191528 27.29406525 32.45318604 28.02308655 C32.45564569 33.56054963 31.0409902 36.54415274 28 41 C23.4411831 45.02872191 18.97847282 46.25040724 13 46 C7.10225544 44.32897238 4.47475159 41.80333308 1 37 C-0.55977064 33.88045872 -0.12104126 30.57040616 -0.09765625 27.1484375 C-0.0962413 26.37440582 -0.09482635 25.60037415 -0.09336853 24.80288696 C-0.08776403 22.32688558 -0.07521083 19.85097412 -0.0625 17.375 C-0.05748558 15.69791797 -0.05292257 14.02083453 -0.04882812 12.34375 C-0.03779315 8.22913194 -0.02052554 4.11458122 0 0 Z " fill="#656769" transform="translate(21,41)"/>
<path d="M0 0 C2.475 0.495 2.475 0.495 5 1 C5.00410889 2.00377686 5.00821777 3.00755371 5.01245117 4.04174805 C5.03428312 7.77891844 5.08861294 11.51504201 5.15258789 15.25170898 C5.17573286 16.86651549 5.19015543 18.48147221 5.19555664 20.09643555 C5.20487274 22.42331148 5.24591368 24.74783676 5.29296875 27.07421875 C5.2890361 27.79212082 5.28510345 28.51002289 5.28105164 29.24967957 C5.39313872 33.13175427 5.89555083 34.86840473 8.3371582 37.94458008 C11.32036768 40.24728849 13.27964988 40.74044069 17 41 C17 42.65 17 44.3 17 46 C11.21321466 45.60091136 7.50134133 44.97792955 3 41 C0.30674066 35.87216496 -0.41991132 31.67991317 -0.29296875 25.87890625 C-0.28660149 24.76176491 -0.28660149 24.76176491 -0.28010559 23.62205505 C-0.26345724 21.26848527 -0.22583375 18.91580621 -0.1875 16.5625 C-0.17243515 14.95639267 -0.15874991 13.35027177 -0.14648438 11.74414062 C-0.11359952 7.82908953 -0.06191626 3.91469521 0 0 Z " fill="#4E5051" transform="translate(1,41)"/>
<path d="M0 0 C1.65 0 3.3 0 5 0 C4.67 14.85 4.34 29.7 4 45 C2.68 45 1.36 45 0 45 C-0.16784025 38.75220534 -0.32780106 32.50424527 -0.48217773 26.25610352 C-0.53568206 24.12877795 -0.59101764 22.00149764 -0.64819336 19.87426758 C-0.72986981 16.8238298 -0.80504681 13.77329203 -0.87890625 10.72265625 C-0.90594131 9.76537125 -0.93297638 8.80808624 -0.96083069 7.8217926 C-0.98092697 6.94095505 -1.00102325 6.06011749 -1.02172852 5.15258789 C-1.04171402 4.37315323 -1.06169952 3.59371857 -1.08229065 2.79066467 C-1 1 -1 1 0 0 Z " fill="#6A6D6F" transform="translate(122,40)"/>
<path d="M0 0 C1.2065625 0.0309375 1.2065625 0.0309375 2.4375 0.0625 C2.1075 2.0425 1.7775 4.0225 1.4375 6.0625 C0.4475 6.0625 -0.5425 6.0625 -1.5625 6.0625 C-1.5625 18.9325 -1.5625 31.8025 -1.5625 45.0625 C-1.8925 45.0625 -2.2225 45.0625 -2.5625 45.0625 C-2.73034025 38.81470534 -2.89030106 32.56674527 -3.04467773 26.31860352 C-3.09818206 24.19127795 -3.15351764 22.06399764 -3.21069336 19.93676758 C-3.29236981 16.8863298 -3.36754681 13.83579203 -3.44140625 10.78515625 C-3.46844131 9.82787125 -3.49547638 8.87058624 -3.52333069 7.8842926 C-3.54342697 7.00345505 -3.56352325 6.12261749 -3.58422852 5.21508789 C-3.60421402 4.43565323 -3.62419952 3.65621857 -3.64479065 2.85316467 C-3.51097222 -0.05875708 -2.90929172 0.07095833 0 0 Z " fill="#363838" transform="translate(124.5625,39.9375)"/>
<path d="M0 0 C1.65 0 3.3 0 5 0 C4.67 1.65 4.34 3.3 4 5 C2.35 4.67 0.7 4.34 -1 4 C-0.67 2.68 -0.34 1.36 0 0 Z " fill="#4AA26B" transform="translate(122,40)"/>
</svg>
